<?xml version="1.0" encoding="utf-8"?>

<!DOCTYPE svg PUBLIC "-//W3C//DTD SVG 1.1//EN" "http://www.w3.org/Graphics/SVG/1.1/DTD/svg11.dtd">
<!-- Uploaded to: SVG Repo, www.svgrepo.com, Generator: SVG Repo Mixer Tools -->
<svg height="800px" width="800px" version="1.1" id="_x32_" xmlns="http://www.w3.org/2000/svg" xmlns:xlink="http://www.w3.org/1999/xlink" 
	 viewBox="0 0 512 512"  xml:space="preserve">
<style type="text/css">
	.st0{fill:#000000;}
</style>
<g>
	<path class="st0" d="M358.361,81.284c-28.333-21.641-57.634-44.02-79.713-68.941l-0.889-1.002l-0.986-1.326
		C271.623,3.653,264.052,0,255.996,0c-8.052,0-15.618,3.653-20.769,10.016l-0.996,1.346l-0.814,0.913
		c-22.143,24.991-51.443,47.369-79.777,69.01C89.082,130.607,22.33,181.599,22.33,270.975c0,6.627,0.295,13.531,0.879,20.512
		c6.265,74.116,59.383,125.883,129.174,125.883c17.424,0,34.874-5.283,50.992-14.994c-6.289,35.586-11.68,62.579-13.497,67.803
		c-4.954,11.852-4.723,22.29,0.84,30.637c4.665,7.001,12.676,11.184,21.425,11.184h87.717c8.744,0,16.752-4.183,21.416-11.175
		c5.562-8.346,5.803-18.784,0.707-31.008c-1.733-5.028-7.1-31.943-13.359-67.45c16.118,9.721,33.566,15.004,50.996,15.004
		c69.782,0,122.904-51.767,129.178-125.873c0.579-6.913,0.874-13.816,0.874-20.522C489.67,181.599,422.919,130.607,358.361,81.284z
		 M460.242,289.091v-0.01c-2.779,32.444-15.702,57.09-33.906,73.901c-18.225,16.781-41.928,25.717-66.718,25.726
		c-13.222,0-26.409-4.399-38.737-12.411c-12.313-8.003-23.645-19.609-32.757-33.484c-2.47-3.761-7.237-5.293-11.435-3.663
		c-4.193,1.621-6.688,5.961-5.98,10.409c4.58,28.81,9.819,59.172,14.335,83.376c2.264,12.107,4.336,22.673,6.073,30.793
		c0.87,4.065,1.655,7.512,2.352,10.29c0.727,2.848,1.233,4.772,2.057,6.815c0.442,1.051,0.634,1.767,0.85,2.504h-80.754
		c0.216-0.737,0.403-1.444,0.844-2.494c0.83-2.052,1.336-3.977,2.062-6.824c2.415-9.652,6.049-27.975,10.148-50.432
		c4.09-22.428,8.606-48.822,12.623-74.028c0.712-4.438-1.783-8.779-5.981-10.409c-4.193-1.63-8.965-0.098-11.434,3.663
		c-9.112,13.875-20.449,25.481-32.762,33.484c-12.332,8.012-25.52,12.411-38.742,12.411c-24.785-0.009-48.488-8.945-66.718-25.726
		c-18.204-16.811-31.127-41.458-33.896-73.901c-0.53-6.303-0.78-12.332-0.78-18.106c0.029-27.622,7.724-50.629,20.601-71.602
		c19.29-31.413,50.801-57.886,84.781-84.064c33.936-26.237,70.208-52.16,98.428-83.955l-0.029,0.039
		c0.5-0.559,0.884-1.002,1.238-1.404c0.363,0.412,0.677,0.775,1.217,1.394l-0.019-0.029c37.638,42.34,89.548,74.47,131.22,110.399
		c20.856,17.93,39.101,36.684,51.984,57.62c12.883,20.974,20.571,43.98,20.6,71.602
		C461.008,276.758,460.762,282.788,460.242,289.091z"/>
</g>
</svg>